<?xml version="1.0" standalone="no"?>
<!DOCTYPE svg PUBLIC "-//W3C//DTD SVG 20010904//EN"
 "http://www.w3.org/TR/2001/REC-SVG-20010904/DTD/svg10.dtd">
<svg version="1.0" xmlns="http://www.w3.org/2000/svg"
 width="200.000000pt" height="200.000000pt" viewBox="0 0 200.000000 200.000000"
 preserveAspectRatio="xMidYMid meet">

<g transform="translate(0.000000,200.000000) scale(0.100000,-0.100000)"
fill="#000000" stroke="none">
<path d="M1020 1291 c0 -6 20 -11 48 -11 106 0 235 -52 307 -125 32 -32 49
-60 63 -107 18 -56 20 -59 21 -29 3 102 -112 211 -269 254 -77 22 -170 31
-170 18z"/>
<path d="M985 1214 c-27 -28 0 -84 41 -84 16 0 28 10 39 30 14 28 14 32 0 46
-22 23 -61 27 -80 8z"/>
<path d="M789 1183 c-4 -30 5 -60 23 -75 11 -10 16 -18 11 -18 -14 0 -30 -40
-48 -116 -18 -80 -19 -74 5 -74 11 0 20 -7 20 -15 0 -21 28 -19 33 3 4 16 5
16 6 0 1 -22 31 -24 31 -3 0 8 7 15 15 15 17 0 19 26 6 83 -9 38 -4 46 17 25
9 -9 18 -6 40 15 16 15 31 25 34 22 3 -4 20 -7 37 -7 17 -1 29 -3 26 -6 -3 -3
0 -11 6 -18 8 -10 16 -11 29 -4 13 7 21 6 26 -2 5 -7 3 -8 -6 -3 -9 5 -11 4
-6 -3 5 -9 15 -8 35 3 l28 14 -13 -57 c-17 -73 -18 -72 6 -72 11 0 20 -7 20
-15 0 -21 28 -19 33 3 4 16 5 16 6 0 1 -22 31 -24 31 -3 0 8 7 15 15 15 8 0
15 8 15 18 0 36 -31 147 -46 163 -13 15 -13 17 6 22 37 10 17 77 -23 77 -44 0
-61 -38 -32 -70 15 -16 13 -20 -16 -44 l-32 -27 -43 42 c-52 51 -68 46 -28 -8
15 -21 22 -32 14 -25 -8 6 -31 12 -53 12 l-38 0 21 30 c33 46 0 38 -44 -11
-40 -43 -38 -44 -93 4 -21 19 -21 19 -2 38 22 22 24 42 7 57 -18 14 -78 25
-79 15z"/>
<path d="M970 1003 c-27 -19 -25 -40 5 -47 16 -4 27 -16 31 -34 12 -55 16 -62
31 -62 9 0 14 3 10 6 -3 3 2 24 12 47 16 38 16 44 2 68 -18 32 -62 42 -91 22z"/>
<path d="M1070 990 c0 -5 5 -10 11 -10 5 0 7 5 4 10 -3 6 -8 10 -11 10 -2 0
-4 -4 -4 -10z"/>
<path d="M440 761 c0 -44 4 -83 10 -86 13 -8 66 21 74 40 3 9 6 34 6 54 0 44
-24 71 -63 71 -27 0 -27 0 -27 -79z m58 57 c28 -28 5 -128 -30 -128 -9 0 -11
124 -1 133 9 10 17 9 31 -5z"/>
<path d="M550 830 c0 -5 5 -10 10 -10 6 0 10 5 10 10 0 6 -4 10 -10 10 -5 0
-10 -4 -10 -10z"/>
<path d="M710 830 c0 -5 5 -10 10 -10 6 0 10 5 10 10 0 6 -4 10 -10 10 -5 0
-10 -4 -10 -10z"/>
<path d="M771 823 c0 -12 -9 -24 -18 -26 -16 -4 -16 -5 -1 -6 13 -1 18 -13 21
-58 l3 -58 2 57 c2 44 6 58 20 61 15 4 15 5 0 6 -9 0 -19 11 -21 24 -4 22 -4
22 -6 0z"/>
<path d="M931 760 l2 -85 9 74 c6 50 6 77 -1 84 -8 8 -11 -14 -10 -73z"/>
<path d="M1030 760 c0 -47 4 -80 10 -80 6 0 10 13 10 29 0 25 5 30 28 34 l27
4 -27 2 c-25 1 -28 5 -28 36 0 32 2 35 30 35 17 0 30 5 30 10 0 6 -18 10 -40
10 l-40 0 0 -80z"/>
<path d="M670 810 c0 -5 -11 -10 -25 -10 -37 0 -60 -41 -46 -81 6 -17 8 -42 5
-54 -7 -29 8 -38 40 -24 33 15 48 2 21 -18 -20 -15 -20 -15 0 -11 25 4 33 46
10 54 -9 4 -21 2 -28 -5 -6 -6 -17 -11 -25 -11 -12 0 -12 3 -2 15 7 8 16 12
21 10 4 -3 18 4 29 15 16 16 20 31 18 75 -2 30 -6 55 -10 55 -5 0 -8 -4 -8
-10z m-20 -36 c0 -8 5 -12 10 -9 16 10 22 -19 11 -48 -12 -30 -45 -37 -55 -11
-10 25 -7 59 6 72 17 17 28 15 28 -4z"/>
<path d="M833 793 c-7 -2 -13 -12 -13 -20 0 -14 3 -14 20 2 16 15 22 15 35 5
22 -19 19 -43 -5 -35 -26 8 -60 -11 -60 -35 0 -26 34 -44 59 -31 10 6 21 7 25
4 3 -3 6 16 6 43 0 65 -21 86 -67 67z m53 -74 c8 -13 -13 -29 -38 -29 -11 0
-18 8 -18 20 0 15 7 20 24 20 14 0 28 -5 32 -11z"/>
<path d="M1132 788 c-15 -15 -16 -63 -2 -89 6 -11 21 -19 35 -19 28 0 45 26
45 67 0 34 -16 53 -45 53 -12 0 -26 -5 -33 -12z m62 -20 c14 -22 -3 -72 -27
-76 -26 -5 -43 41 -28 74 12 28 37 29 55 2z"/>
<path d="M1230 741 c0 -33 4 -62 9 -65 10 -7 21 77 14 105 -11 39 -23 17 -23
-40z"/>
<path d="M1271 786 c-10 -12 -9 -14 8 -9 15 4 20 -1 24 -24 4 -23 5 -22 3 6
-1 38 -16 50 -35 27z"/>
<path d="M550 748 c0 -24 5 -50 10 -58 7 -11 10 2 10 43 0 31 -4 57 -10 57 -5
0 -10 -19 -10 -42z"/>
<path d="M710 735 c0 -30 5 -55 10 -55 6 0 10 25 10 55 0 30 -4 55 -10 55 -5
0 -10 -25 -10 -55z"/>
<path d="M1332 738 c2 -43 7 -54 22 -56 11 -2 23 4 29 14 10 17 11 17 18 -1 5
-13 8 2 7 40 l0 60 -16 -49 c-9 -27 -22 -51 -28 -53 -15 -5 -24 33 -17 68 3
19 1 29 -6 29 -8 0 -11 -17 -9 -52z"/>
<path d="M1440 735 c0 -30 5 -55 10 -55 6 0 10 12 10 28 1 15 7 38 15 52 14
24 14 23 15 -27 0 -63 18 -71 22 -11 4 61 28 62 29 1 0 -41 2 -45 11 -26 6 12
8 37 4 57 -6 32 -9 35 -39 33 -18 -2 -38 -6 -44 -10 -8 -5 -13 -4 -13 2 0 6
-4 11 -10 11 -5 0 -10 -25 -10 -55z"/>
</g>
</svg>
